<?xml version="1.0" standalone="no"?>
<!DOCTYPE svg PUBLIC "-//W3C//DTD SVG 20010904//EN"
 "http://www.w3.org/TR/2001/REC-SVG-20010904/DTD/svg10.dtd">
<svg version="1.0" xmlns="http://www.w3.org/2000/svg"
 width="1012.000000pt" height="1012.000000pt" viewBox="0 0 1012.000000 1012.000000"
 preserveAspectRatio="xMidYMid meet">
<metadata>
Created by potrace 1.14, written by Peter Selinger 2001-2017
</metadata>
<g transform="translate(0.000000,1012.000000) scale(0.100000,-0.100000)"
fill="#000000" stroke="none">
<path d="M4897 10114 c-1 -1 -65 -5 -142 -8 -179 -7 -316 -18 -385 -31 -8 -1
-42 -6 -75 -10 -33 -5 -67 -9 -75 -10 -13 -2 -46 -8 -160 -30 -44 -8 -121 -27
-250 -62 -69 -18 -132 -35 -140 -37 -113 -29 -457 -159 -615 -231 -248 -114
-439 -220 -690 -383 -72 -47 -246 -170 -255 -181 -3 -3 -31 -25 -62 -49 -186
-138 -496 -427 -668 -623 -538 -613 -986 -1407 -1188 -2109 -33 -114 -68 -249
-76 -293 -3 -15 -7 -35 -10 -45 -3 -9 -7 -33 -10 -52 -3 -19 -7 -44 -9 -55 -8
-38 -17 -90 -22 -130 -4 -22 -8 -51 -11 -65 -2 -14 -6 -50 -9 -80 -4 -30 -8
-66 -10 -80 -20 -131 -27 -656 -11 -835 11 -130 16 -175 21 -216 3 -20 8 -56
10 -79 4 -36 21 -134 61 -350 44 -233 198 -710 300 -927 13 -28 24 -54 24 -57
0 -8 141 -291 181 -362 76 -138 204 -342 316 -504 149 -214 347 -446 587 -685
320 -319 621 -554 1019 -797 43 -27 80 -48 83 -48 2 0 23 -12 47 -27 77 -49
390 -201 547 -266 249 -103 610 -220 810 -262 221 -47 365 -72 515 -90 28 -3
66 -7 85 -10 19 -2 78 -7 130 -10 52 -4 106 -9 120 -11 31 -5 463 -5 545 1
270 17 599 69 825 131 52 14 100 27 105 28 143 35 468 152 680 246 246 108
615 307 830 448 113 73 330 226 345 242 3 3 39 32 80 64 156 124 250 208 419
376 148 147 209 215 390 435 78 95 228 315 321 472 39 65 74 125 79 133 16 26
138 272 166 335 89 195 192 478 269 730 38 126 102 404 126 542 5 35 12 75 15
90 24 136 36 357 19 340 -7 -6 -8 -13 -19 -122 -8 -80 -30 -222 -50 -315 -9
-41 -18 -86 -20 -100 -12 -81 -117 -398 -178 -535 -68 -155 -291 -541 -425
-735 -290 -422 -669 -780 -1137 -1072 -449 -281 -971 -486 -1535 -604 -69 -14
-138 -27 -155 -30 -16 -2 -42 -6 -57 -9 -15 -4 -42 -8 -60 -10 -105 -13 -133
-17 -148 -20 -9 -2 -53 -6 -96 -10 -43 -4 -86 -9 -95 -10 -57 -11 -283 -19
-519 -19 -298 0 -420 6 -617 30 -27 3 -61 7 -78 9 -49 5 -156 20 -215 30 -132
23 -436 90 -515 115 -234 73 -304 96 -385 126 -301 112 -603 265 -835 423 -72
49 -227 164 -265 197 -236 204 -423 394 -571 580 -39 49 -79 98 -88 109 -119
144 -319 464 -453 725 -191 372 -350 847 -412 1230 -10 61 -25 163 -31 215 -3
28 -8 64 -10 80 -25 187 -25 744 0 915 2 14 6 50 10 81 3 31 7 65 9 75 2 11 7
39 10 64 34 245 118 567 220 845 21 55 43 114 50 130 8 17 24 55 37 85 39 91
172 350 224 435 266 440 520 732 1030 1184 179 159 457 360 665 482 74 44 142
84 150 89 38 22 302 151 360 175 36 15 79 33 95 40 142 60 459 162 595 190 8
2 15 4 15 5 0 1 7 3 15 5 348 77 626 107 980 108 179 1 435 -9 462 -17 7 -3
48 -7 90 -11 43 -3 83 -7 90 -10 7 -2 36 -6 63 -9 28 -3 64 -8 80 -11 372 -66
699 -162 1045 -310 118 -51 123 -52 55 -10 -105 63 -495 251 -650 313 -127 50
-346 129 -380 136 -5 2 -41 12 -80 24 -110 33 -250 69 -375 96 -98 21 -153 31
-341 61 -49 8 -104 15 -176 20 -40 4 -83 8 -95 11 -32 6 -476 22 -481 18z"/>
<path d="M4645 7830 l-150 -150 -145 145 -145 144 -700 0 -701 -1 -359 -356
-360 -356 0 -393 0 -393 35 -1 c38 -1 645 0 748 0 l62 1 0 189 0 189 141 140
140 140 293 0 293 -1 139 -138 139 -138 1 -598 1 -598 -664 1 -663 2 0 -419 0
-419 23 -1 c12 0 310 -1 662 -2 l640 -2 1 -1146 c0 -630 3 -1150 6 -1155 4 -5
180 -9 425 -9 l418 0 0 1157 0 1158 575 0 575 0 0 -801 0 -801 359 -358 360
-358 699 0 699 1 34 29 c19 17 181 177 362 356 l327 327 -1 390 c-1 215 -2
392 -3 395 -1 4 -809 5 -833 1 -4 0 -7 -86 -7 -189 l1 -189 -141 -140 -141
-140 -295 0 -294 0 -137 138 -138 138 0 591 c-1 326 1 595 4 600 3 4 299 7
658 7 358 0 655 2 658 6 4 4 9 781 5 828 -1 3 -298 5 -660 5 -579 -1 -660 1
-663 14 -2 8 -3 278 -2 600 l1 585 138 138 138 137 296 0 296 -1 138 -137 138
-138 0 -192 0 -192 422 0 422 0 0 395 0 396 -357 355 -357 356 -702 0 -702 0
-105 -103 c-58 -57 -121 -121 -140 -141 -19 -21 -39 -38 -46 -38 -6 0 -76 65
-156 145 l-145 145 -705 0 -705 -1 -150 -149z m1292 -832 l138 -138 0 -599 0
-598 -575 0 -575 0 1 599 0 598 140 138 139 139 297 0 296 0 139 -139z"/>
</g>
</svg>
